<svg version="1" xmlns="http://www.w3.org/2000/svg" width="666.667" height="666.667" viewBox="0 0 500.000000 500.000000"><path d="M78.7 36c-1 .4-1.3 12.3-1.2 55.7V147l-16.6-.1c-14.5 0-17.2.3-21.4 2.1-7.6 3.2-12.1 7.5-15.6 14.5-2.8 5.6-3 7-2.6 13.1.6 8.8.7 9.3 4.4 15.2 3.9 6.3 11.1 11.3 18.3 12.7 3 .6 11.7 1.1 19.3 1 7.5 0 13.7.2 13.8.5.5 2.3.3 48.3-.2 48.6-.3.2-8 .4-17 .5-19.4.1-24.4 1.5-31.5 8.5-14.7 14.4-10.3 38.5 8.6 47.5 3.9 1.9 6.6 2.2 21.5 2.6 9.4.1 17.5.5 18 .7.7.2 1 8.9.9 24.7-.1 13.4-.2 24.7-.3 25.1-.1.3-7.6.8-16.8 1-19.4.4-23 1.4-30.2 8.9-14.3 14.8-9.6 38.5 9.4 47 4.4 2 6.9 2.3 20.8 2.5 8.8.1 16.2.5 16.5.9.3.3.6 8.8.7 18.8v18.2l59.2.1 59.2.1v-17.6-18.8c.1-.8 31.4-1 125.4-.8 120.4.2 125.5.2 130.3-1.6 6.7-2.5 12.9-8 16.2-14.3 3.7-7.1 3.9-18.9.4-25.6-4.2-8-11.1-13.8-18.9-15.9-2.7-.7-44.2-1.2-128.6-1.3-123.9-.3-124.7-.3-124.8-2.3-.1-2.7-.1-38 0-43.1l.1-4.1 19.8-.1c10.8-.1 20.8-.5 22.2-.8 1.4-.4 48.9-.7 105.5-.8l103-.1 5.7-2.8c17.4-8.5 21.9-30.8 9.2-45.6-4-4.6-10.9-8.6-16.5-9.5-2-.3-21-.6-42.3-.7l-38.6-.2 1.5-2.1c8.8-12.2 14.4-23.1 18.7-36.3 1.7-5.4 3.5-10 3.9-10.3.5-.3 13.3-.6 28.5-.5 31.4.1 35.7-.6 43.2-7.1 8-6.8 12.1-19.8 9.3-30-2.5-9.2-11.3-18-20.5-20.5-2.5-.7-15.3-1.2-32.4-1.2-24.4-.1-28.3-.3-28.6-1.7-.3-.8-1.2-4.5-2.1-8.3-8.4-34.8-32.9-64-67.9-81.1-10.9-5.3-28.9-11.9-35.7-13.1-1.9-.3-5.1-1.1-7.3-1.6-4-1.1-12.2-2.6-19.1-3.5-2.2-.3-5.3-.7-7-.9-12-1.6-166.1-3-169.8-1.5zm163.8 91.4c9.8 2.7 18.1 7.2 24.2 13.1 3.1 3 5.4 5.8 5 6.1-1 1.1-75 .5-75.6-.5-.4-.5-.5-3.3-.4-6.3.1-2.9.2-7.5.2-10.2l.1-4.8 20.3.5c14.2.3 22 1 26.2 2.1zm29.6 80.3c-4 7.5-19.3 17.7-29.8 19.8-11 2.3-30.2 3.3-39.3 2.1-1.4-.2-3.6-.4-5-.5-2.7-.1-2.7-.5-2.1-20.6l.1-2.5h38.5c36.4 0 38.5.1 37.6 1.7z"/></svg>